# Blender v2.91.0 OBJ File: 'square.blend'
# www.blender.org
mtllib grass.mtl
o square.001_Plane.001
v 2.864410 0.094782 -6.533669
v -1.736016 0.094782 -6.533669
v -1.736016 0.094782 -2.862823
v 2.864410 0.094782 -2.862823
v -1.673171 0.094782 2.912971
v -1.673171 0.094782 6.483521
v 2.801564 0.094782 2.912971
v 2.801564 0.094782 6.483521
v 6.704514 0.070901 -1.129428
v 6.704514 0.070901 -2.259262
v 3.743686 0.070901 -2.259262
v 3.743686 0.070901 -1.129428
v 6.695576 0.070901 2.255851
v 3.752624 0.070901 2.255851
v 6.695576 0.070901 1.132838
v 3.752624 0.070901 1.132838
v 6.719981 0.098946 0.302089
v 6.719982 0.098946 -0.302089
v 3.728219 0.098946 0.302089
v 3.728219 0.098946 -0.302089
v 6.529715 0.094369 -2.910820
v 6.529715 0.094369 -6.485672
v 3.918485 0.094369 -6.485672
v 3.918485 0.094369 -2.910820
v 3.835710 0.094369 6.598994
v 6.612490 0.094369 6.598994
v 6.612490 0.094369 2.797498
v 3.835710 0.094369 2.797498
v 14.532380 -0.287462 -1.144527
v 14.532380 -0.287462 -2.244162
v 12.007794 -0.119473 -2.244162
v 12.007794 -0.119473 -1.144527
v 14.509167 -0.285918 0.285624
v 14.509167 -0.285918 -0.285624
v 12.031006 -0.121018 0.285624
v 12.031008 -0.121018 -0.285624
v 14.492306 -0.284796 2.226707
v 14.492306 -0.284796 1.161982
v 12.047867 -0.122140 2.226707
v 12.047867 -0.122140 1.161982
vt -0.075884 0.532596
vt -2.271369 -2.218860
vt -0.075884 -2.218860
vt -0.073028 -0.083359
vt 2.603253 -2.218860
vt 2.603253 -0.083360
vt 1.590585 -0.080503
vt 2.266324 1.690329
vt 1.590585 1.690329
vt 2.940840 1.679639
vt 2.269180 -0.080503
vt 2.940840 -0.080503
vt 2.967461 -0.429527
vt 2.606109 -2.218860
vt 2.967461 -2.218860
vt -0.133297 2.097195
vt -2.271369 0.535452
vt -0.133297 0.535452
vt 1.587729 -0.080503
vt -0.073028 2.193123
vt -0.073028 -0.080503
vt 2.926858 3.195756
vt 2.269180 1.682495
vt 2.926858 1.682495
vt 3.271369 3.167929
vt 2.929714 1.682497
vt 3.271369 1.682495
vt 2.227383 3.158406
vt 1.590585 1.693186
vt 2.227383 1.693186
vt -2.271369 0.532596
vt -0.073028 -2.218860
vt 2.266324 -0.080503
vt 2.269180 1.679639
vt 2.606110 -0.429526
vt -2.271369 2.097195
vt 1.587729 2.193123
vt 2.269180 3.195756
vt 2.929714 3.167929
vt 1.590585 3.158406
vn 0.0000 1.0000 0.0000
vn 0.0664 0.9978 0.0000
usemtl grass
s off
f 4/1/1 2/2/1 3/3/1
f 8/4/1 5/5/1 6/6/1
f 9/7/1 11/8/1 12/9/1
f 13/10/1 16/11/1 14/12/1
f 17/13/1 20/14/1 19/15/1
f 21/16/1 23/17/1 24/18/1
f 26/19/1 28/20/1 25/21/1
f 29/22/2 31/23/2 32/24/2
f 33/25/2 36/26/2 35/27/2
f 37/28/2 40/29/2 39/30/2
f 4/1/1 1/31/1 2/2/1
f 8/4/1 7/32/1 5/5/1
f 9/7/1 10/33/1 11/8/1
f 13/10/1 15/34/1 16/11/1
f 17/13/1 18/35/1 20/14/1
f 21/16/1 22/36/1 23/17/1
f 26/19/1 27/37/1 28/20/1
f 29/22/2 30/38/2 31/23/2
f 33/25/2 34/39/2 36/26/2
f 37/28/2 38/40/2 40/29/2
