# Blender v2.91.0 OBJ File: 'square.blend'
# www.blender.org
mtllib ground_2.mtl
o square.002_Plane.002
v 14.766924 -0.400116 7.047369
v 14.766924 -0.400116 -7.047369
v 22.866257 -0.400116 7.047369
v 22.866257 -0.400116 -7.047369
v 14.766924 -0.400116 2.349123
v 14.766924 -0.400116 -2.349123
v 22.866257 -0.400116 2.349123
v 22.866257 -0.400116 -2.349123
v 14.766924 -0.400116 1.039566
v 14.766924 -0.400116 -1.039566
v 22.866257 -0.400116 1.039566
v 22.866257 -0.400116 -1.039566
v 14.766924 -0.400116 0.346522
v 14.766924 -0.400116 -0.346522
v 22.866257 -0.400116 0.346522
v 22.866257 -0.400116 -0.346522
vt -12.271268 1.140185
vt -7.789139 -6.586580
vt -7.789138 1.140181
vt -3.307008 1.140181
vt 1.175121 -6.586583
vt 1.175121 1.140181
vt -6.539825 -6.586583
vt -6.539820 1.140181
vt -4.556325 1.140181
vt -3.307007 -6.586583
vt -5.878656 -6.586583
vt -5.878654 1.140181
vt -5.217490 1.140181
vt -4.556320 -6.586583
vt -5.217489 -6.586583
vt -12.271268 -6.586580
vn 0.0000 1.0000 0.0000
usemtl floor
s off
f 1/1/1 7/2/1 5/3/1
f 6/4/1 4/5/1 2/6/1
f 5/3/1 11/7/1 9/8/1
f 10/9/1 8/10/1 6/4/1
f 9/8/1 15/11/1 13/12/1
f 14/13/1 12/14/1 10/9/1
f 13/12/1 16/15/1 14/13/1
f 1/1/1 3/16/1 7/2/1
f 6/4/1 8/10/1 4/5/1
f 5/3/1 7/2/1 11/7/1
f 10/9/1 12/14/1 8/10/1
f 9/8/1 11/7/1 15/11/1
f 14/13/1 16/15/1 12/14/1
f 13/12/1 15/11/1 16/15/1
