# Blender v2.91.0 OBJ File: 'square.blend'
# www.blender.org
mtllib ground_1.mtl.mtl
o square.001_Plane.001
v -2.379803 0.000000 7.047369
v 14.766924 -0.400116 7.047369
v -2.379803 0.000000 -7.047369
v 14.766924 -0.400116 -7.047369
v 6.940003 0.000000 7.047369
v 6.940003 0.000000 -7.047369
v -2.379803 0.000000 -2.349123
v -2.379803 0.000000 2.349123
v 14.766924 -0.400116 2.349123
v 14.766924 -0.400116 -2.349123
v 6.940003 0.000000 2.349123
v 6.940003 0.000000 -2.349123
v 3.508197 0.000000 -7.047369
v 3.508197 0.000000 7.047369
v 3.508197 0.000000 2.349123
v 3.508197 0.000000 -2.349123
v 3.104651 0.000000 -6.725366
v -1.976258 0.000000 -6.725366
v -1.976258 0.000000 -2.671126
v 3.104651 0.000000 -2.671126
v -1.943383 0.000000 2.697358
v -1.943383 0.000000 6.699134
v 3.071777 0.000000 2.697358
v 3.071777 0.000000 6.699134
v 3.104651 0.094782 -6.725366
v -1.976258 0.094782 -6.725366
v -1.976258 0.094782 -2.671126
v 3.104651 0.094782 -2.671126
v -1.943383 0.094782 2.697358
v -1.943383 0.094782 6.699134
v 3.071777 0.094782 2.697358
v 3.071777 0.094782 6.699134
v -2.379804 0.000000 -1.039566
v -2.379804 0.000000 1.039566
v 14.766924 -0.400116 1.039566
v 14.766924 -0.400116 -1.039566
v 6.940003 0.000000 1.039566
v 6.940003 0.000000 -1.039566
v 3.508197 0.000000 1.039566
v 3.508197 0.000000 -1.039566
v 6.940003 0.070901 -1.039566
v 6.940003 0.070901 -2.349123
v 6.940003 0.070901 2.349123
v 3.508197 0.070901 2.349123
v 3.508197 0.070901 -2.349123
v 3.508197 0.070901 -1.039566
v 6.940003 0.070901 1.039566
v 3.508197 0.070901 1.039566
v -2.379804 0.000000 -0.346522
v -2.379804 0.000000 0.346522
v 14.766924 -0.400116 0.346522
v 14.766924 -0.400116 -0.346522
v 6.940003 0.000000 0.346522
v 6.940003 0.000000 -0.346522
v 3.508197 0.000000 0.346522
v 3.508197 0.000000 -0.346522
v 6.940003 0.098946 0.346522
v 6.940003 0.098946 -0.346522
v 3.508197 0.098946 0.346522
v 3.508197 0.098946 -0.346522
v 6.616836 0.000000 -2.791549
v 6.616836 0.000000 -6.604943
v 3.831364 0.000000 -6.604943
v 3.831364 0.000000 -2.791549
v 3.732633 0.000000 6.740109
v 6.715567 0.000000 6.740109
v 6.715567 0.000000 2.656383
v 3.732633 0.000000 2.656383
v 6.616836 0.094369 -2.791549
v 6.616836 0.094369 -6.604943
v 3.831364 0.094369 -6.604943
v 3.831364 0.094369 -2.791549
v 3.732633 0.094369 6.740109
v 6.715567 0.094369 6.740109
v 6.715567 0.094369 2.656383
v 3.732633 0.094369 2.656383
v 11.760391 -0.200058 7.047369
v 11.760393 -0.200058 -7.047369
v 11.760391 -0.200058 2.349123
v 11.760393 -0.200058 -2.349123
v 11.760391 -0.200058 1.039566
v 11.760393 -0.200058 -1.039566
v 11.760391 -0.200058 0.346522
v 11.760393 -0.200058 -0.346522
v 14.773353 -0.303497 -1.039566
v 14.773353 -0.303497 -2.349123
v 14.773353 -0.303497 2.349123
v 14.773353 -0.303497 1.039566
v 14.773353 -0.303497 0.346522
v 14.773353 -0.303497 -0.346522
v 11.766820 -0.103439 2.349123
v 11.766822 -0.103439 -2.349123
v 11.766820 -0.103439 1.039566
v 11.766822 -0.103439 -1.039566
v 11.766820 -0.103439 0.346522
v 11.766822 -0.103439 -0.346522
vt 2.520126 -3.820758
vt 7.002254 -0.946183
vt 2.520126 -0.946183
vt 7.002254 3.656428
vt 2.942199 3.964730
vt 2.520125 3.656428
vt -6.444131 3.656431
vt -6.151007 6.716258
vt -6.444134 6.930372
vt 0.500000 0.444444
vt 0.500000 0.333333
vt 0.500000 0.333333
vt -6.444134 -3.820754
vt -1.962003 -0.946180
vt -6.444134 -0.946180
vt 0.750000 0.444444
vt 1.000000 0.444444
vt 1.000000 0.444444
vt 1.270807 6.930368
vt 2.520120 12.547519
vt 1.270802 12.547516
vt -1.962001 6.930368
vt -6.111916 7.346714
vt 7.002249 12.547519
vt 6.695058 7.315353
vt 7.002250 6.930368
vt 0.250000 0.666667
vt 0.000000 0.666667
vt 0.000000 0.666667
vt 6.695057 12.162535
vt 2.520123 6.930368
vt 2.827312 12.162535
vt 2.827314 7.315351
vt 0.000000 0.000000
vt 0.000000 0.000000
vt 0.000000 0.000000
vt -6.111913 12.131179
vt -6.444128 12.547522
vt -2.294213 12.131174
vt -1.961998 12.547519
vt -2.294216 7.346714
vt 0.250000 0.333333
vt 0.250000 0.000000
vt 0.250000 0.000000
vt 0.000000 0.000000
vt 0.000000 0.000000
vt 0.000000 0.000000
vt 0.000000 0.333333
vt 0.250000 0.333333
vt 0.250000 1.000000
vt 0.250000 0.666667
vt 0.000000 0.000000
vt 0.000000 0.000000
vt 0.000000 0.000000
vt 0.000000 0.000000
vt -0.712680 12.547519
vt 0.609643 6.930368
vt 0.609641 12.547516
vt 0.750000 0.518519
vt 1.000000 0.518519
vt 1.000000 0.518519
vt 0.609644 -3.820758
vt 1.270808 -0.946183
vt 0.609644 -0.946183
vt 0.500000 0.555556
vt 0.250000 0.555556
vt 0.250000 0.555556
vt 0.609644 3.656428
vt 0.250000 0.666667
vt 0.250000 0.666667
vt 0.500000 0.666667
vt 0.500000 0.555556
vt 0.250000 0.333333
vt 0.250000 0.333333
vt 0.250000 0.444444
vt 0.500000 0.444444
vt 0.500000 0.666667
vt 0.250000 0.444444
vt -0.712685 3.656428
vt -0.051521 6.930368
vt -0.712685 6.930368
vt 0.250000 0.481481
vt 0.250000 0.518518
vt 0.250000 0.518518
vt -0.712686 -3.820758
vt -0.051521 -0.946180
vt -0.712685 -0.946180
vt 0.750000 0.666667
vt 1.000000 0.666667
vt 1.000000 0.666667
vt -0.051520 12.547519
vt 0.500000 0.518519
vt 0.500000 0.481482
vt 0.500000 0.481482
vt 0.250000 0.481481
vt 0.500000 0.518519
vt 0.500000 0.666667
vt 0.250000 0.666667
vt 0.250000 0.666667
vt 6.580175 3.964730
vt 2.942199 6.622066
vt 6.580175 6.622068
vt 0.000000 0.000000
vt 0.000000 0.000000
vt 0.000000 0.000000
vt -2.255128 3.870541
vt -1.962001 3.656428
vt -2.255126 6.716258
vt -6.151008 3.870543
vt 0.250000 0.000000
vt 0.250000 0.333333
vt 0.250000 0.333333
vt 0.500000 1.000000
vt 0.500000 0.666667
vt 0.500000 0.333333
vt 0.500000 0.000000
vt 0.500000 0.000000
vt 0.250000 1.000000
vt 0.250000 1.000000
vt 0.000000 0.000000
vt 0.000000 0.000000
vt 0.000000 0.000000
vt 0.500000 0.333333
vt -0.051520 3.656428
vt 1.270808 3.656428
vt 0.750000 0.333333
vt 0.750000 0.444444
vt 0.750000 0.481481
vt 0.750000 0.518519
vt 0.750000 0.555556
vt 1.000000 0.555556
vt 0.750000 0.555556
vt 0.750000 0.666667
vt 1.000000 0.333333
vt 0.750000 0.333333
vt 1.000000 0.481481
vt 0.750000 0.481481
vt 1.000000 0.481481
vt 1.000000 0.555556
vt 1.000000 0.333333
vt 7.002254 -3.820758
vt -1.962004 -3.820758
vt 0.000000 0.333333
vt 0.250000 1.000000
vt 0.000000 0.000000
vt 0.000000 0.000000
vt 1.270808 -3.820758
vt -0.051521 -3.820758
vt 0.000000 0.000000
vt 0.250000 0.000000
vt 0.500000 1.000000
vt 0.000000 0.000000
vn 0.0664 0.9978 0.0000
vn 0.0000 1.0000 0.0000
vn 1.0000 0.0000 0.0000
vn 0.0000 0.0000 -1.0000
vn 0.0000 0.0000 1.0000
vn -1.0000 0.0000 0.0000
vn 0.0415 0.9991 0.0000
vn -0.9978 0.0664 0.0000
vn 0.9978 -0.0664 0.0000
usemtl concrete
s off
f 10/1/1 78/2/1 80/3/1
f 6/4/2 61/5/2 12/6/2
f 5/7/2 65/8/2 14/9/2
f 37/10/3 43/11/3 11/12/3
f 2/13/1 79/14/1 77/15/1
f 81/16/4 88/17/4 35/18/4
f 40/19/2 7/20/2 33/21/2
f 15/22/2 24/23/2 14/9/2
f 3/24/2 17/25/2 13/26/2
f 20/27/5 27/28/5 19/29/5
f 7/20/2 18/30/2 3/24/2
f 16/31/2 19/32/2 7/20/2
f 13/26/2 20/33/2 16/31/2
f 22/34/6 29/35/6 21/36/6
f 14/9/2 22/37/2 1/38/2
f 1/38/2 21/39/2 8/40/2
f 8/40/2 23/41/2 15/22/2
f 23/42/3 32/43/3 24/44/3
f 18/45/4 25/46/4 17/47/4
f 21/48/4 31/49/4 23/42/4
f 17/50/3 28/51/3 20/27/3
f 19/52/6 26/53/6 18/45/6
f 24/54/5 30/55/5 22/34/5
f 15/22/2 34/56/2 8/40/2
f 56/57/2 33/21/2 49/58/2
f 84/59/4 90/60/4 52/61/4
f 52/62/1 82/63/1 84/64/1
f 38/65/5 46/66/5 40/67/5
f 54/68/2 40/19/2 56/57/2
f 40/67/6 45/69/6 16/70/6
f 12/71/3 41/72/3 38/65/3
f 11/12/5 44/73/5 15/74/5
f 39/75/4 47/76/4 37/10/4
f 16/70/4 42/77/4 12/71/4
f 15/74/6 48/78/6 39/75/6
f 37/79/2 55/80/2 39/81/2
f 55/82/6 60/83/6 56/84/6
f 35/85/1 83/86/1 81/87/1
f 80/88/4 86/89/4 10/90/4
f 39/81/2 50/91/2 34/56/2
f 55/80/2 49/58/2 50/91/2
f 54/92/3 57/93/3 53/94/3
f 53/94/5 59/95/5 55/82/5
f 56/84/4 58/96/4 54/92/4
f 61/97/5 72/98/5 64/99/5
f 13/26/2 62/100/2 6/4/2
f 12/6/2 64/101/2 16/31/2
f 16/31/2 63/102/2 13/26/2
f 66/103/5 73/104/5 65/105/5
f 15/22/2 67/106/2 11/107/2
f 14/9/2 68/108/2 15/22/2
f 11/107/2 66/109/2 5/7/2
f 65/110/6 76/111/6 68/112/6
f 62/113/3 69/114/3 61/97/3
f 67/115/3 74/116/3 66/117/3
f 64/99/6 71/118/6 63/119/6
f 63/120/4 70/121/4 62/122/4
f 68/112/4 75/123/4 67/115/4
f 83/86/7 54/68/7 53/124/7
f 81/87/7 53/124/7 37/79/7
f 84/64/7 38/125/7 54/68/7
f 79/14/7 37/79/7 11/107/7
f 82/63/7 12/6/7 38/125/7
f 77/15/7 11/107/7 5/7/7
f 80/3/7 6/4/7 12/6/7
f 79/126/8 93/127/8 81/16/8
f 83/128/8 96/129/8 84/59/8
f 82/130/5 85/131/5 94/132/5
f 82/130/8 92/133/8 80/88/8
f 79/126/5 87/134/5 91/135/5
f 83/128/5 89/136/5 95/137/5
f 52/61/9 89/136/9 51/138/9
f 10/90/9 85/131/9 36/139/9
f 35/18/9 87/134/9 9/140/9
f 10/1/1 4/141/1 78/2/1
f 6/4/2 62/100/2 61/5/2
f 5/7/2 66/109/2 65/8/2
f 37/10/3 47/76/3 43/11/3
f 2/13/1 9/142/1 79/14/1
f 81/16/4 93/127/4 88/17/4
f 40/19/2 16/31/2 7/20/2
f 15/22/2 23/41/2 24/23/2
f 3/24/2 18/30/2 17/25/2
f 20/27/5 28/51/5 27/28/5
f 7/20/2 19/32/2 18/30/2
f 16/31/2 20/33/2 19/32/2
f 13/26/2 17/25/2 20/33/2
f 22/34/6 30/55/6 29/35/6
f 14/9/2 24/23/2 22/37/2
f 1/38/2 22/37/2 21/39/2
f 8/40/2 21/39/2 23/41/2
f 23/42/3 31/49/3 32/43/3
f 18/45/4 26/53/4 25/46/4
f 21/48/4 29/143/4 31/49/4
f 17/50/3 25/144/3 28/51/3
f 19/52/6 27/145/6 26/53/6
f 24/54/5 32/146/5 30/55/5
f 15/22/2 39/81/2 34/56/2
f 56/57/2 40/19/2 33/21/2
f 84/59/4 96/129/4 90/60/4
f 52/62/1 36/147/1 82/63/1
f 38/65/5 41/72/5 46/66/5
f 54/68/2 38/125/2 40/19/2
f 40/67/6 46/66/6 45/69/6
f 12/71/3 42/77/3 41/72/3
f 11/12/5 43/11/5 44/73/5
f 39/75/4 48/78/4 47/76/4
f 16/70/4 45/69/4 42/77/4
f 15/74/6 44/73/6 48/78/6
f 37/79/2 53/124/2 55/80/2
f 55/82/6 59/95/6 60/83/6
f 35/85/1 51/148/1 83/86/1
f 80/88/4 92/133/4 86/89/4
f 39/81/2 55/80/2 50/91/2
f 55/80/2 56/57/2 49/58/2
f 54/92/3 58/96/3 57/93/3
f 53/94/5 57/93/5 59/95/5
f 56/84/4 60/83/4 58/96/4
f 61/97/5 69/114/5 72/98/5
f 13/26/2 63/102/2 62/100/2
f 12/6/2 61/5/2 64/101/2
f 16/31/2 64/101/2 63/102/2
f 66/103/5 74/149/5 73/104/5
f 15/22/2 68/108/2 67/106/2
f 14/9/2 65/8/2 68/108/2
f 11/107/2 67/106/2 66/109/2
f 65/110/6 73/150/6 76/111/6
f 62/113/3 70/151/3 69/114/3
f 67/115/3 75/123/3 74/116/3
f 64/99/6 72/98/6 71/118/6
f 63/120/4 71/152/4 70/121/4
f 68/112/4 76/111/4 75/123/4
f 83/86/7 84/64/7 54/68/7
f 81/87/7 83/86/7 53/124/7
f 84/64/7 82/63/7 38/125/7
f 79/14/7 81/87/7 37/79/7
f 82/63/7 80/3/7 12/6/7
f 77/15/7 79/14/7 11/107/7
f 80/3/7 78/2/7 6/4/7
f 79/126/8 91/135/8 93/127/8
f 83/128/8 95/137/8 96/129/8
f 82/130/5 36/139/5 85/131/5
f 82/130/8 94/132/8 92/133/8
f 79/126/5 9/140/5 87/134/5
f 83/128/5 51/138/5 89/136/5
f 52/61/9 90/60/9 89/136/9
f 10/90/9 86/89/9 85/131/9
f 35/18/9 88/17/9 87/134/9
