# Blender v2.91.0 OBJ File: 'square.blend'
# www.blender.org
mtllib platform.mtl
o platform_Cube.001
v -1.284140 -0.142295 1.848005
v -1.284140 0.142295 1.848005
v -1.284140 -0.142295 -1.848005
v -1.284140 0.142295 -1.848005
v 1.284140 -0.142295 1.848005
v 1.284140 0.142295 1.848005
v 1.284140 -0.142295 -1.848005
v 1.284140 0.142295 -1.848005
vt -0.075934 1.986490
vt 0.152981 -0.986490
vt 0.152984 1.986490
vt 0.000033 0.000033
vt 0.999967 0.110836
vt 0.000033 0.110836
vt 0.000028 0.999972
vt 0.077023 0.000028
vt 0.077023 0.999972
vt 0.000034 0.999967
vt 0.110836 0.000033
vt 0.110836 0.999967
vt 0.375000 0.500000
vt 0.125000 0.750000
vt 0.125000 0.500000
vt 1.718894 -1.473622
vt -1.023963 2.473622
vt -1.023964 -1.473622
vt -0.075934 -0.986490
vt 0.999967 0.000033
vt 0.000029 0.000028
vt 0.000033 0.000033
vt 0.375000 0.750000
vt 1.718894 2.473622
vn -1.0000 0.0000 0.0000
vn 0.0000 0.0000 -1.0000
vn 1.0000 0.0000 0.0000
vn 0.0000 0.0000 1.0000
vn 0.0000 -1.0000 0.0000
vn 0.0000 1.0000 0.0000
usemtl floor
s off
f 2/1/1 3/2/1 1/3/1
f 4/4/2 7/5/2 3/6/2
f 8/7/3 5/8/3 7/9/3
f 6/10/4 1/11/4 5/12/4
f 7/13/5 1/14/5 3/15/5
f 4/16/6 6/17/6 8/18/6
f 2/1/1 4/19/1 3/2/1
f 4/4/2 8/20/2 7/5/2
f 8/7/3 6/21/3 5/8/3
f 6/10/4 2/22/4 1/11/4
f 7/13/5 5/23/5 1/14/5
f 4/16/6 2/24/6 6/17/6
